<mxfile host="app.diagrams.net" modified="2020-11-19T22:01:47.732Z" agent="5.0 (Windows NT 10.0; Win64; x64) AppleWebKit/537.36 (KHTML, like Gecko) Chrome/86.0.4240.198 Safari/537.36" etag="00yhXTMLIvVuGBcrRV-y" version="13.10.0" type="github">
  <diagram id="dbmzpbNbU_0EVoZNfDKH" name="Page-1">
    <mxGraphModel dx="1038" dy="1717" grid="1" gridSize="10" guides="1" tooltips="1" connect="1" arrows="1" fold="1" page="1" pageScale="1" pageWidth="827" pageHeight="1169" math="0" shadow="0">
      <root>
        <mxCell id="0" />
        <mxCell id="1" parent="0" />
        <mxCell id="J5Uw7S5W74ju-p9mBWIw-18" style="edgeStyle=orthogonalEdgeStyle;rounded=0;orthogonalLoop=1;jettySize=auto;html=1;endArrow=none;endFill=0;" parent="1" source="J5Uw7S5W74ju-p9mBWIw-2" target="J5Uw7S5W74ju-p9mBWIw-4" edge="1">
          <mxGeometry relative="1" as="geometry">
            <Array as="points">
              <mxPoint x="380" y="180" />
              <mxPoint x="105" y="180" />
            </Array>
          </mxGeometry>
        </mxCell>
        <mxCell id="J5Uw7S5W74ju-p9mBWIw-19" style="edgeStyle=orthogonalEdgeStyle;rounded=0;orthogonalLoop=1;jettySize=auto;html=1;endArrow=none;endFill=0;" parent="1" source="J5Uw7S5W74ju-p9mBWIw-2" target="J5Uw7S5W74ju-p9mBWIw-7" edge="1">
          <mxGeometry relative="1" as="geometry">
            <Array as="points">
              <mxPoint x="380" y="180" />
              <mxPoint x="752" y="180" />
            </Array>
          </mxGeometry>
        </mxCell>
        <mxCell id="FZfQw7iE5WS3LV5isEr6-38" style="edgeStyle=orthogonalEdgeStyle;rounded=0;orthogonalLoop=1;jettySize=auto;html=1;endArrow=none;endFill=0;" edge="1" parent="1" source="J5Uw7S5W74ju-p9mBWIw-2" target="FZfQw7iE5WS3LV5isEr6-36">
          <mxGeometry relative="1" as="geometry">
            <Array as="points">
              <mxPoint x="380" y="180" />
              <mxPoint x="1325" y="180" />
            </Array>
          </mxGeometry>
        </mxCell>
        <mxCell id="J5Uw7S5W74ju-p9mBWIw-2" value="Научи нешто ново -&lt;br&gt;Откриј го скриениот поим со&lt;br&gt;пополнување на крстозборот" style="rounded=0;whiteSpace=wrap;html=1;" parent="1" vertex="1">
          <mxGeometry x="300" y="-30" width="170" height="100" as="geometry" />
        </mxCell>
        <mxCell id="J5Uw7S5W74ju-p9mBWIw-3" value="0." style="text;html=1;strokeColor=none;fillColor=none;align=left;verticalAlign=middle;whiteSpace=wrap;rounded=0;" parent="1" vertex="1">
          <mxGeometry x="310" y="-30" width="30" height="20" as="geometry" />
        </mxCell>
        <mxCell id="J5Uw7S5W74ju-p9mBWIw-27" style="edgeStyle=orthogonalEdgeStyle;rounded=0;orthogonalLoop=1;jettySize=auto;html=1;entryX=0.5;entryY=0;entryDx=0;entryDy=0;endArrow=none;endFill=0;" parent="1" source="J5Uw7S5W74ju-p9mBWIw-4" target="J5Uw7S5W74ju-p9mBWIw-9" edge="1">
          <mxGeometry relative="1" as="geometry" />
        </mxCell>
        <mxCell id="J5Uw7S5W74ju-p9mBWIw-28" style="edgeStyle=orthogonalEdgeStyle;rounded=0;orthogonalLoop=1;jettySize=auto;html=1;endArrow=none;endFill=0;" parent="1" source="J5Uw7S5W74ju-p9mBWIw-4" target="J5Uw7S5W74ju-p9mBWIw-5" edge="1">
          <mxGeometry relative="1" as="geometry">
            <Array as="points">
              <mxPoint x="105" y="320" />
              <mxPoint x="265" y="320" />
            </Array>
          </mxGeometry>
        </mxCell>
        <mxCell id="J5Uw7S5W74ju-p9mBWIw-29" style="edgeStyle=orthogonalEdgeStyle;rounded=0;orthogonalLoop=1;jettySize=auto;html=1;endArrow=none;endFill=0;" parent="1" source="J5Uw7S5W74ju-p9mBWIw-4" target="J5Uw7S5W74ju-p9mBWIw-6" edge="1">
          <mxGeometry relative="1" as="geometry">
            <Array as="points">
              <mxPoint x="105" y="320" />
              <mxPoint x="425" y="320" />
            </Array>
          </mxGeometry>
        </mxCell>
        <mxCell id="J5Uw7S5W74ju-p9mBWIw-4" value="Погледни го барањето" style="rounded=0;whiteSpace=wrap;html=1;" parent="1" vertex="1">
          <mxGeometry x="30" y="190" width="150" height="90" as="geometry" />
        </mxCell>
        <mxCell id="J5Uw7S5W74ju-p9mBWIw-5" value="Погледни ги сликите на почетокот нумерирани со цифрите 1-8" style="rounded=0;whiteSpace=wrap;html=1;" parent="1" vertex="1">
          <mxGeometry x="190" y="330" width="150" height="90" as="geometry" />
        </mxCell>
        <mxCell id="J5Uw7S5W74ju-p9mBWIw-6" value="Погледни го крстозборот и колоните нумерирани со цифрите 1-8" style="rounded=0;whiteSpace=wrap;html=1;" parent="1" vertex="1">
          <mxGeometry x="350" y="330" width="160" height="90" as="geometry" />
        </mxCell>
        <mxCell id="FZfQw7iE5WS3LV5isEr6-17" style="edgeStyle=orthogonalEdgeStyle;rounded=0;orthogonalLoop=1;jettySize=auto;html=1;endArrow=none;endFill=0;" edge="1" parent="1" source="J5Uw7S5W74ju-p9mBWIw-7" target="FZfQw7iE5WS3LV5isEr6-7">
          <mxGeometry relative="1" as="geometry" />
        </mxCell>
        <mxCell id="J5Uw7S5W74ju-p9mBWIw-7" value="Одреди ги боите на нештата по редослед" style="rounded=0;whiteSpace=wrap;html=1;" parent="1" vertex="1">
          <mxGeometry x="677" y="190" width="150" height="90" as="geometry" />
        </mxCell>
        <mxCell id="J5Uw7S5W74ju-p9mBWIw-9" value="Прочитај го објаснувањето на крстозборот" style="rounded=0;whiteSpace=wrap;html=1;" parent="1" vertex="1">
          <mxGeometry x="30" y="330" width="150" height="90" as="geometry" />
        </mxCell>
        <mxCell id="J5Uw7S5W74ju-p9mBWIw-11" value="1" style="text;html=1;strokeColor=none;fillColor=none;align=left;verticalAlign=middle;whiteSpace=wrap;rounded=0;" parent="1" vertex="1">
          <mxGeometry x="40" y="190" width="30" height="20" as="geometry" />
        </mxCell>
        <mxCell id="J5Uw7S5W74ju-p9mBWIw-12" value="2" style="text;html=1;strokeColor=none;fillColor=none;align=left;verticalAlign=middle;whiteSpace=wrap;rounded=0;" parent="1" vertex="1">
          <mxGeometry x="690" y="190" width="30" height="20" as="geometry" />
        </mxCell>
        <mxCell id="J5Uw7S5W74ju-p9mBWIw-14" value="1.1." style="text;html=1;strokeColor=none;fillColor=none;align=left;verticalAlign=middle;whiteSpace=wrap;rounded=0;" parent="1" vertex="1">
          <mxGeometry x="40" y="330" width="30" height="20" as="geometry" />
        </mxCell>
        <mxCell id="J5Uw7S5W74ju-p9mBWIw-15" value="1.2." style="text;html=1;strokeColor=none;fillColor=none;align=left;verticalAlign=middle;whiteSpace=wrap;rounded=0;" parent="1" vertex="1">
          <mxGeometry x="200" y="330" width="30" height="20" as="geometry" />
        </mxCell>
        <mxCell id="J5Uw7S5W74ju-p9mBWIw-16" value="1.3." style="text;html=1;strokeColor=none;fillColor=none;align=left;verticalAlign=middle;whiteSpace=wrap;rounded=0;" parent="1" vertex="1">
          <mxGeometry x="360" y="330" width="30" height="20" as="geometry" />
        </mxCell>
        <mxCell id="J5Uw7S5W74ju-p9mBWIw-21" value="&lt;b&gt;&lt;font color=&quot;#7912ff&quot;&gt;план 0:&lt;br&gt;&amp;nbsp; &amp;nbsp; направи 1&lt;br&gt;&amp;nbsp; &amp;nbsp; потоа направи 2&lt;br&gt;&amp;nbsp; &amp;nbsp; на крај&amp;nbsp;направи 3&lt;br&gt;&amp;nbsp; &amp;nbsp; А&lt;/font&gt;&lt;/b&gt;&lt;b&gt;&lt;font color=&quot;#7912ff&quot;&gt;ко добиениот поим &lt;br&gt;&amp;nbsp; &amp;nbsp; не постои како збор&lt;br&gt;&amp;nbsp; &amp;nbsp; повтори 2-3&lt;/font&gt;&lt;/b&gt;&lt;b&gt;&lt;font color=&quot;#7912ff&quot;&gt;&lt;br&gt;&lt;/font&gt;&lt;/b&gt;" style="text;html=1;align=left;verticalAlign=middle;resizable=0;points=[];autosize=1;" parent="1" vertex="1">
          <mxGeometry x="340" y="80" width="140" height="90" as="geometry" />
        </mxCell>
        <mxCell id="J5Uw7S5W74ju-p9mBWIw-30" value="&lt;b&gt;&lt;font color=&quot;#7912ff&quot;&gt;&amp;nbsp; &amp;nbsp;план 1:&lt;br&gt;&amp;nbsp; &amp;nbsp; &amp;nbsp; &amp;nbsp;1.1 - 1.2 - 1.3&lt;/font&gt;&lt;/b&gt;" style="text;html=1;align=left;verticalAlign=middle;resizable=0;points=[];autosize=1;" parent="1" vertex="1">
          <mxGeometry x="100" y="290" width="110" height="30" as="geometry" />
        </mxCell>
        <mxCell id="FZfQw7iE5WS3LV5isEr6-2" value="Погледни ја сликата на одредениот предмет" style="rounded=0;whiteSpace=wrap;html=1;" vertex="1" parent="1">
          <mxGeometry x="520" y="470" width="150" height="90" as="geometry" />
        </mxCell>
        <mxCell id="FZfQw7iE5WS3LV5isEr6-31" style="edgeStyle=orthogonalEdgeStyle;rounded=0;orthogonalLoop=1;jettySize=auto;html=1;endArrow=none;endFill=0;" edge="1" parent="1" source="FZfQw7iE5WS3LV5isEr6-3" target="FZfQw7iE5WS3LV5isEr6-4">
          <mxGeometry relative="1" as="geometry" />
        </mxCell>
        <mxCell id="FZfQw7iE5WS3LV5isEr6-3" value="Погледни ја соодветна колона (според соодветната цифра)" style="rounded=0;whiteSpace=wrap;html=1;" vertex="1" parent="1">
          <mxGeometry x="677" y="470" width="150" height="90" as="geometry" />
        </mxCell>
        <mxCell id="FZfQw7iE5WS3LV5isEr6-4" value="Изброј ги квадратчињата во таа колона за да одредиш од колку букви се состои зборот" style="rounded=0;whiteSpace=wrap;html=1;" vertex="1" parent="1">
          <mxGeometry x="673.5" y="600" width="157" height="100" as="geometry" />
        </mxCell>
        <mxCell id="FZfQw7iE5WS3LV5isEr6-5" value="Одреди ја бојата на предметот прикажан на соодветната слика" style="rounded=0;whiteSpace=wrap;html=1;" vertex="1" parent="1">
          <mxGeometry x="834" y="470" width="150" height="90" as="geometry" />
        </mxCell>
        <mxCell id="FZfQw7iE5WS3LV5isEr6-21" style="edgeStyle=orthogonalEdgeStyle;rounded=0;orthogonalLoop=1;jettySize=auto;html=1;endArrow=none;endFill=0;" edge="1" parent="1" source="FZfQw7iE5WS3LV5isEr6-7" target="FZfQw7iE5WS3LV5isEr6-2">
          <mxGeometry relative="1" as="geometry">
            <Array as="points">
              <mxPoint x="752" y="450" />
              <mxPoint x="592" y="450" />
            </Array>
          </mxGeometry>
        </mxCell>
        <mxCell id="FZfQw7iE5WS3LV5isEr6-22" style="edgeStyle=orthogonalEdgeStyle;rounded=0;orthogonalLoop=1;jettySize=auto;html=1;endArrow=none;endFill=0;" edge="1" parent="1" source="FZfQw7iE5WS3LV5isEr6-7" target="FZfQw7iE5WS3LV5isEr6-3">
          <mxGeometry relative="1" as="geometry" />
        </mxCell>
        <mxCell id="FZfQw7iE5WS3LV5isEr6-23" style="edgeStyle=orthogonalEdgeStyle;rounded=0;orthogonalLoop=1;jettySize=auto;html=1;endArrow=none;endFill=0;" edge="1" parent="1" source="FZfQw7iE5WS3LV5isEr6-7" target="FZfQw7iE5WS3LV5isEr6-5">
          <mxGeometry relative="1" as="geometry">
            <Array as="points">
              <mxPoint x="752" y="450" />
              <mxPoint x="912" y="450" />
            </Array>
          </mxGeometry>
        </mxCell>
        <mxCell id="FZfQw7iE5WS3LV5isEr6-24" style="edgeStyle=orthogonalEdgeStyle;rounded=0;orthogonalLoop=1;jettySize=auto;html=1;endArrow=none;endFill=0;" edge="1" parent="1" source="FZfQw7iE5WS3LV5isEr6-7" target="FZfQw7iE5WS3LV5isEr6-8">
          <mxGeometry relative="1" as="geometry">
            <Array as="points">
              <mxPoint x="752" y="450" />
              <mxPoint x="1075" y="450" />
            </Array>
          </mxGeometry>
        </mxCell>
        <mxCell id="FZfQw7iE5WS3LV5isEr6-7" value="Пополни ја соодветната колона со резултатот&lt;br&gt;во крстозборот" style="rounded=0;whiteSpace=wrap;html=1;" vertex="1" parent="1">
          <mxGeometry x="677" y="310" width="150" height="90" as="geometry" />
        </mxCell>
        <mxCell id="FZfQw7iE5WS3LV5isEr6-32" style="edgeStyle=orthogonalEdgeStyle;rounded=0;orthogonalLoop=1;jettySize=auto;html=1;endArrow=none;endFill=0;" edge="1" parent="1" source="FZfQw7iE5WS3LV5isEr6-8" target="FZfQw7iE5WS3LV5isEr6-9">
          <mxGeometry relative="1" as="geometry">
            <Array as="points">
              <mxPoint x="1078" y="590" />
              <mxPoint x="1078" y="590" />
            </Array>
          </mxGeometry>
        </mxCell>
        <mxCell id="FZfQw7iE5WS3LV5isEr6-8" value="Напиши го името на бојата во квадратчињата на колоната од горе надолу" style="rounded=0;whiteSpace=wrap;html=1;" vertex="1" parent="1">
          <mxGeometry x="995" y="470" width="165" height="90" as="geometry" />
        </mxCell>
        <mxCell id="FZfQw7iE5WS3LV5isEr6-9" value="Напиши буква од името на бојата во соодветното квадратче" style="rounded=0;whiteSpace=wrap;html=1;" vertex="1" parent="1">
          <mxGeometry x="990" y="600" width="160" height="100" as="geometry" />
        </mxCell>
        <mxCell id="FZfQw7iE5WS3LV5isEr6-10" value="2.1." style="text;html=1;strokeColor=none;fillColor=none;align=left;verticalAlign=middle;whiteSpace=wrap;rounded=0;" vertex="1" parent="1">
          <mxGeometry x="690" y="310" width="30" height="20" as="geometry" />
        </mxCell>
        <mxCell id="FZfQw7iE5WS3LV5isEr6-11" value="2.1.1." style="text;html=1;strokeColor=none;fillColor=none;align=left;verticalAlign=middle;whiteSpace=wrap;rounded=0;" vertex="1" parent="1">
          <mxGeometry x="530" y="470" width="30" height="20" as="geometry" />
        </mxCell>
        <mxCell id="FZfQw7iE5WS3LV5isEr6-12" value="2.1.2." style="text;html=1;strokeColor=none;fillColor=none;align=left;verticalAlign=middle;whiteSpace=wrap;rounded=0;" vertex="1" parent="1">
          <mxGeometry x="690" y="470" width="30" height="20" as="geometry" />
        </mxCell>
        <mxCell id="FZfQw7iE5WS3LV5isEr6-13" value="2.1.3." style="text;html=1;strokeColor=none;fillColor=none;align=left;verticalAlign=middle;whiteSpace=wrap;rounded=0;" vertex="1" parent="1">
          <mxGeometry x="850" y="470" width="30" height="20" as="geometry" />
        </mxCell>
        <mxCell id="FZfQw7iE5WS3LV5isEr6-14" value="2.1.4." style="text;html=1;strokeColor=none;fillColor=none;align=left;verticalAlign=middle;whiteSpace=wrap;rounded=0;" vertex="1" parent="1">
          <mxGeometry x="1010" y="470" width="30" height="20" as="geometry" />
        </mxCell>
        <mxCell id="FZfQw7iE5WS3LV5isEr6-15" value="2.1.2.1." style="text;html=1;strokeColor=none;fillColor=none;align=left;verticalAlign=middle;whiteSpace=wrap;rounded=0;" vertex="1" parent="1">
          <mxGeometry x="690" y="600" width="30" height="20" as="geometry" />
        </mxCell>
        <mxCell id="FZfQw7iE5WS3LV5isEr6-16" value="2.1.4.1." style="text;html=1;strokeColor=none;fillColor=none;align=left;verticalAlign=middle;whiteSpace=wrap;rounded=0;" vertex="1" parent="1">
          <mxGeometry x="1000" y="600" width="30" height="20" as="geometry" />
        </mxCell>
        <mxCell id="FZfQw7iE5WS3LV5isEr6-19" value="&lt;font style=&quot;font-size: 17px&quot;&gt;&lt;b&gt;*&lt;/b&gt;&lt;/font&gt;" style="text;html=1;strokeColor=none;fillColor=none;align=center;verticalAlign=middle;whiteSpace=wrap;rounded=0;" vertex="1" parent="1">
          <mxGeometry x="800" y="320" width="27" height="10" as="geometry" />
        </mxCell>
        <mxCell id="FZfQw7iE5WS3LV5isEr6-20" value="&lt;b&gt;&lt;font color=&quot;#7912ff&quot;&gt;&amp;nbsp; &amp;nbsp;план 2:&lt;br&gt;&amp;nbsp; &amp;nbsp; &amp;nbsp; &amp;nbsp;повторувај 2.1.&lt;/font&gt;&lt;/b&gt;" style="text;html=1;align=left;verticalAlign=middle;resizable=0;points=[];autosize=1;" vertex="1" parent="1">
          <mxGeometry x="750" y="280" width="130" height="30" as="geometry" />
        </mxCell>
        <mxCell id="FZfQw7iE5WS3LV5isEr6-30" value="&lt;b&gt;&lt;font color=&quot;#7912ff&quot;&gt;&amp;nbsp; &amp;nbsp;план 2.1:&lt;br&gt;&amp;nbsp; &amp;nbsp; &amp;nbsp; &amp;nbsp;2.1.1. - 2.1.4&lt;/font&gt;&lt;/b&gt;" style="text;html=1;align=left;verticalAlign=middle;resizable=0;points=[];autosize=1;" vertex="1" parent="1">
          <mxGeometry x="748.5" y="410" width="110" height="30" as="geometry" />
        </mxCell>
        <mxCell id="FZfQw7iE5WS3LV5isEr6-33" value="&lt;b&gt;&lt;font color=&quot;#7912ff&quot;&gt;&amp;nbsp; &amp;nbsp;план 2.1.2:&lt;br&gt;&amp;nbsp; &amp;nbsp; &amp;nbsp; &amp;nbsp;направи 2.1.2.1.&lt;/font&gt;&lt;/b&gt;" style="text;html=1;align=left;verticalAlign=middle;resizable=0;points=[];autosize=1;" vertex="1" parent="1">
          <mxGeometry x="750" y="570" width="130" height="30" as="geometry" />
        </mxCell>
        <mxCell id="FZfQw7iE5WS3LV5isEr6-34" value="&lt;b&gt;&lt;font color=&quot;#7912ff&quot;&gt;&amp;nbsp; &amp;nbsp;план 2.1.4:&lt;br&gt;&amp;nbsp; &amp;nbsp; &amp;nbsp; &amp;nbsp;повторувај 2.1.4.1.&lt;/font&gt;&lt;/b&gt;" style="text;html=1;align=left;verticalAlign=middle;resizable=0;points=[];autosize=1;" vertex="1" parent="1">
          <mxGeometry x="1070" y="569.5" width="150" height="30" as="geometry" />
        </mxCell>
        <mxCell id="FZfQw7iE5WS3LV5isEr6-35" value="&lt;font style=&quot;font-size: 17px&quot;&gt;&lt;b&gt;*&lt;/b&gt;&lt;/font&gt;" style="text;html=1;strokeColor=none;fillColor=none;align=center;verticalAlign=middle;whiteSpace=wrap;rounded=0;" vertex="1" parent="1">
          <mxGeometry x="1123" y="605" width="27" height="10" as="geometry" />
        </mxCell>
        <mxCell id="FZfQw7iE5WS3LV5isEr6-36" value="Во редицата означена со сина боја прочитај го скриениот збор" style="rounded=0;whiteSpace=wrap;html=1;" vertex="1" parent="1">
          <mxGeometry x="1250" y="190" width="150" height="90" as="geometry" />
        </mxCell>
        <mxCell id="FZfQw7iE5WS3LV5isEr6-37" value="3" style="text;html=1;strokeColor=none;fillColor=none;align=left;verticalAlign=middle;whiteSpace=wrap;rounded=0;" vertex="1" parent="1">
          <mxGeometry x="1260" y="190" width="30" height="20" as="geometry" />
        </mxCell>
      </root>
    </mxGraphModel>
  </diagram>
</mxfile>
